<svg width="16" height="16" viewBox="0 0 16 16" fill="none" xmlns="http://www.w3.org/2000/svg">
<path d="M7.15347 3.38212C7.42992 3.34989 7.7123 3.33333 7.99998 3.33333C11.1093 3.33333 13.5999 5.26842 14.6666 7.99999C14.4036 8.6736 14.0539 9.29877 13.6298 9.85843M4.34639 4.34629C2.98635 5.17603 1.93406 6.46172 1.33331 7.99999C2.40007 10.7316 4.89067 12.6667 7.99998 12.6667C9.35836 12.6667 10.5986 12.2973 11.6537 11.6536M6.58583 6.58572C6.22386 6.94765 5.99998 7.44768 5.99998 7.99999C5.99998 9.10456 6.89541 9.99999 7.99998 9.99999C8.5523 9.99999 9.05232 9.77611 9.41425 9.41415" stroke="#C90C00" stroke-width="1.5" stroke-linecap="round" stroke-linejoin="round"/>
<path d="M2.66669 2.66667L13.3334 13.3333" stroke="#C90C00" stroke-width="1.5" stroke-linecap="round"/>
</svg>
