<svg width="16" height="16" viewBox="0 0 16 16" fill="none" xmlns="http://www.w3.org/2000/svg">
<circle cx="7.99999" cy="7.99999" r="1.33333" stroke="#292929" stroke-width="1.5"/>
<path d="M3.59903 3.91945C2.97921 4.58751 2.52913 5.38032 2.26706 6.22971L3.33327 6.84528C4.22216 7.35848 4.22216 8.64148 3.33327 9.15468L2.26592 9.77091C2.39606 10.1909 2.5747 10.6031 2.80384 11C3.03296 11.3968 3.30058 11.7576 3.59925 12.0803L4.66662 11.4641C5.55551 10.9509 6.66662 11.5924 6.66662 12.6188L6.66662 13.85C7.53324 14.0477 8.44488 14.0543 9.33335 13.8516L9.33335 12.6188C9.33335 11.5924 10.4445 10.9509 11.3333 11.4641L12.4009 12.0805C13.0208 11.4124 13.4709 10.6196 13.7329 9.77025L12.6667 9.15465C11.7778 8.64145 11.7778 7.35845 12.6667 6.84525L13.734 6.229C13.6039 5.80899 13.4253 5.39683 13.1961 4.99998C12.967 4.6031 12.6994 4.24231 12.4007 3.9196L11.3333 4.53583C10.4445 5.04904 9.33335 4.40753 9.33335 3.38113L9.33335 2.14998C8.46672 1.95224 7.55509 1.94562 6.66662 2.14837L6.66662 3.38112C6.66662 4.40752 5.55551 5.04902 4.66662 4.53582L3.59903 3.91945Z" stroke="#292929" stroke-width="1.5" stroke-linejoin="round"/>
</svg>
